<?xml version="1.0" encoding="UTF-8" standalone="no"?>
<!-- Created with Inkscape (http://www.inkscape.org/) -->

<svg
   width="97.627998mm"
   height="203.375mm"
   viewBox="0 0 97.627998 203.375"
   version="1.1"
   id="svg1"
   xml:space="preserve"
   xmlns:inkscape="http://www.inkscape.org/namespaces/inkscape"
   xmlns:sodipodi="http://sodipodi.sourceforge.net/DTD/sodipodi-0.dtd"
   xmlns="http://www.w3.org/2000/svg"
   xmlns:svg="http://www.w3.org/2000/svg"><sodipodi:namedview
     id="namedview1"
     pagecolor="#ffffff"
     bordercolor="#000000"
     borderopacity="0.25"
     inkscape:showpageshadow="2"
     inkscape:pageopacity="0.0"
     inkscape:pagecheckerboard="0"
     inkscape:deskcolor="#d1d1d1"
     inkscape:document-units="mm"><inkscape:page
       x="0"
       y="0"
       width="97.627998"
       height="203.375"
       id="page2"
       margin="0"
       bleed="0" /></sodipodi:namedview><defs
     id="defs1" /><g
     inkscape:label="Layer 1"
     inkscape:groupmode="layer"
     id="layer1"><path
       style="fill:#000000"
       d="m 21.309848,202.75716 c 0.13531,-0.33955 0.44283,-1.564 0.68338,-2.721 0.35812,-1.72246 0.62025,-2.20499 1.44664,-2.66302 0.5551,-0.30766 1.12092,-0.97685 1.25738,-1.48709 0.13646,-0.51024 0.58852,-1.2931 1.00458,-1.73968 0.41606,-0.44659 0.83929,-1.21201 0.94051,-1.70094 0.10123,-0.48893 0.3506,-1.19247 0.55416,-1.56342 0.69783,-1.27164 1.70394,-4.5513 1.70394,-5.55439 0,-0.64181 0.18452,-1.0031 0.51233,-1.0031 0.48557,0 3.00672,-4.75207 3.55608,-6.70278 0.13661,-0.48507 0.44894,-1.12007 0.69409,-1.41111 0.24514,-0.29104 0.56035,-0.92604 0.70046,-1.41111 0.14011,-0.48507 0.67169,-1.59632 1.18129,-2.46945 0.87466,-1.49862 1.60394,-3.16903 2.07924,-4.7625 0.11575,-0.38805 0.32264,-0.78493 0.45976,-0.88194 0.3453,-0.2443 1.40008,-5.6169 1.40008,-7.13138 0,-2.43039 -2.54168,-4.23874 -6.9145,-4.91953 -1.30773,-0.20359 -2.94601,-0.64895 -3.64063,-0.98967 -0.69461,-0.34072 -1.73918,-0.84422 -2.32126,-1.11888 -2.88622,-1.36188 -5.06613,-2.84424 -4.8833,-3.32068 0.11825,-0.30817 -0.12752,-0.62728 -0.63709,-0.8272 -0.45628,-0.17901 -1.09419,-0.64382 -1.41756,-1.03291 -0.33022,-0.39734 -1.91529,-1.11231 -3.61597,-1.63105 -3.09714,-0.94469 -4.19716,-1.89639 -1.70511,-1.47521 0.72761,0.12297 1.91823,0.32278 2.64584,0.44402 1.34497,0.22412 1.90179,-0.31488 0.70555,-0.68296 -3.04651,-0.93743 -6.87066,-3.05639 -6.63312,-3.67541 0.10035,-0.26149 -0.41548,-0.74732 -1.2401996,-1.16806 -0.77661,-0.3962 -1.32309,-0.86424 -1.2144,-1.0401 0.21358,-0.34559 2.0202396,0.14131 5.0438396,1.35933 1.92333,0.77479 3.25013,0.96522 3.25013,0.46647 0,-0.3477 -1.95937,-1.19489 -4.65245,-2.01162 -1.10365,-0.33471 -2.09085,-0.82804 -2.19379,-1.0963 -0.1029496,-0.26826 -0.5413996,-0.48775 -0.9743496,-0.48775 -0.57592,0 -0.68229,-0.1049 -0.39633,-0.39086 0.28595,-0.28595 0.7373,-0.27652 1.6816896,0.0352 1.99531,0.65851 2.18912,-0.17373 0.26641,-1.14397 -3.7280396,-1.88125 -10.32592962,-6.23528 -10.60571962,-6.99885 -0.24924,-0.68023 0.98025002,-0.25524 4.17454002,1.44296 3.55764,1.89138 4.0696,2.05981 3.75298,1.23473 -0.51993,-1.35493 1.63062,-0.2247 3.5906596,1.88708 1.58811,1.71106 1.62657,1.67196 0.90688,-0.92219 -0.35708,-1.28712 0.72598,-0.61516 1.46334,0.90789 2.17226,4.48693 2.45935,4.94521 2.85193,4.55263 0.12669,-0.12668 -0.10879,-1.01866 -0.52328,-1.98216 -0.41449,-0.96351 -0.75362,-1.86913 -0.75362,-2.01251 0,-0.4647 1.74509,1.36401 1.96609,2.06029 0.11787,0.3714 0.41988,0.59639 0.67112,0.49998 0.25123,-0.0964 0.80979,0.072 1.24124,0.37416 0.62326,0.43655 0.84173,0.45676 1.06323,0.0984 0.15333,-0.24809 0.50004,-0.36617 0.77047,-0.2624 1.02587,0.39366 3.41013,4.01496 4.00817,6.08774 0.7012,2.43034 1.43655,3.70417 2.13831,3.70417 0.64194,0 0.64767,0.032 -0.52318,-2.91846 -1.77655,-4.4768 -2.12958,-5.90098 -1.46275,-5.90098 0.48899,0 2.38366,3.86483 3.21641,6.56096 0.79165,2.56306 2.39082,5.40565 3.05047,5.42233 0.56721,0.0143 0.57192,0.0441 -0.30811,-1.94538 -0.67349,-1.52253 -0.69316,-1.73434 -0.19485,-2.0987 0.37596,-0.27492 0.58854,-1.10744 0.66089,-2.58833 0.0587,-1.20068 0.26068,-2.18831 0.44892,-2.19473 0.18824,-0.006 0.54676,1.14613 0.79671,2.56123 0.24995,1.41509 0.61187,3.24986 0.80427,4.07726 0.1924,0.82741 0.34981,1.99929 0.34981,2.6042 0,1.30731 1.24788,3.47616 2.00006,3.47616 0.71067,0 0.33922,-2.33511 -0.75759,-4.7625 -0.43835,-0.97014 -0.91788,-2.3164 -1.06562,-2.99169 -0.24181,-1.1053 -0.21166,-1.18054 0.30218,-0.75409 1.37395,1.14027 3.32978,5.78278 3.43582,8.1555 0.0745,1.66798 0.30012,2.46944 0.69504,2.46944 0.18933,0 0.329,-2.32127 0.329,-5.46805 0,-3.33939 0.13472,-5.46806 0.34606,-5.46806 0.57021,0 0.73036,1.3238 0.82935,6.8556 0.0596,3.32966 0.23243,5.31415 0.46975,5.39325 1.12354,0.37452 3.0611,-9.9007 2.26284,-12.00028 -0.5291,-1.39163 -7.31907,-7.98595 -8.26558,-8.02742 -3.59643,-0.15753 -4.71474,-0.53549 -7.98964,-2.70029 -4.42916,-2.9278 -4.90638,-3.3062 -4.7345,-3.75412 0.0953,-0.24834 -0.14983,-0.74393 -0.54473,-1.10131 -0.39489,-0.35738 -0.71799,-0.82455 -0.71799,-1.03815 0,-0.21361 -0.51594,-0.61135 -1.14653,-0.88387 -4.00803,-1.73212 -5.6788,-2.63455 -5.11528,-2.76288 1.08003,-0.24596 0.67037,-0.72011 -1.14238,-1.32221 -0.96785,-0.32147 -1.86594,-0.75632 -1.99574,-0.96634 -0.36001,-0.58252 3.69473,-0.0638 6.26221,0.80114 1.19253,0.40173 2.49544,0.68231 2.89536,0.62351 0.68187,-0.10025 0.69009,-0.14375 0.13209,-0.69894 -0.32726,-0.32562 -1.5079,-0.79183 -2.62363,-1.03603 -2.19294,-0.47997 -6.7911,-2.60447 -6.7911,-3.13771 0,-0.18005 0.23812,-0.23598 0.52916,-0.1243 0.85929,0.32974 0.60407,-0.44776 -0.35277,-1.07471 -1.26982,-0.83201 -1.0849,-1.26341 0.35247,-0.82227 1.15162,0.35344 2.34385,0.0171 1.27912,-0.3609 -0.26678,-0.0947 -0.78272,-0.46984 -1.14652,-0.83364 -0.36381,-0.36381 -0.79158,-0.66146 -0.95062,-0.66146 -0.15904,0 -0.60729,-0.35719 -0.9961196,-0.79375 -0.38883,-0.43656 -1.56192,-1.50813 -2.60689,-2.38125 -2.6932,-2.25033 -3.91507,-3.62276 -3.55019,-3.98764 0.36106,-0.36106 1.51792,0.18494 2.99384,1.413 0.59334,0.49371 1.25304,0.75872 1.57813,0.63397 0.3799,-0.14578 1.17938,0.44071 2.4990796,1.8333 1.91475,2.0205 1.94207,2.03478 2.06127,1.07751 0.14903,-1.1969 0.41617,-1.21137 1.62809,-0.0882 0.5234,0.48507 1.13433,0.88195 1.35763,0.88195 0.22331,0 0.92712,0.50508 1.56404,1.12241 1.30468,1.26454 1.75437,1.18601 1.12451,-0.19637 -0.4998,-1.09696 -0.15724,-1.63135 0.57584,-0.89827 1.2664,1.2664 3.67434,5.72321 3.89801,7.21477 0.24329,1.62237 1.29792,3.37241 1.75683,2.91528 0.13755,-0.13702 -0.16734,-1.72452 -0.67753,-3.52778 -0.51019,-1.80326 -0.92657,-3.49653 -0.92528,-3.76282 0.004,-0.82749 0.94378,0.19632 1.79582,1.9564 0.45259,0.93493 0.87175,1.42762 1.016,1.19423 0.13505,-0.21852 0.47098,-0.30907 0.7465,-0.20122 0.59924,0.23454 2.08847,2.44771 2.08847,3.1037 0,0.25495 0.14624,0.61437 0.32497,0.7987 0.48306,0.49816 1.84039,4.73344 1.62742,5.07803 -0.42223,0.68319 1.57738,4.01576 2.09747,3.49567 0.19565,-0.19566 -0.76923,-5.80145 -1.22976,-7.14468 -0.80893,-2.35942 -0.11957,-3.12722 1.06132,-1.18208 0.38283,0.63059 1.05221,1.23236 1.48751,1.33726 1.19661,0.28837 3.09554,5.03862 3.40689,8.52248 0.22442,2.51108 0.50793,3.46368 0.91093,3.06068 0.27165,-0.27164 0.29977,-6.72945 0.0369,-8.47495 -0.27904,-1.853 0.21641,-2.5465 0.91471,-1.28035 0.28377,0.51454 0.47151,2.5803 0.52187,5.74252 0.0433,2.71639 0.0899,5.05795 0.10365,5.20347 0.0138,0.14552 0.25593,0.26458 0.53818,0.26458 0.3221,0 0.58799,-0.49257 0.71411,-1.32291 0.50626,-3.33324 1.47254,-6.98468 2.02416,-7.64906 0.59789,-0.72009 0.60578,-0.71476 0.61736,0.41711 0.0125,1.22152 0.29844,1.41783 1.02764,0.70556 0.62909,-0.6145 0.19646,5.71277 -0.52927,7.74046 -0.63943,1.78662 -0.53273,4.51857 0.17649,4.51857 0.3371,0 0.74369,-1.24693 1.32258,-4.05612 1.00494,-4.87665 0.96389,-9.11611 -0.0996,-10.2913 -0.94597,-1.04529 -3.27674,-2.29626 -4.76241,-2.55609 -0.70887,-0.12397 -1.37385,-0.4469 -1.47774,-0.71762 -0.10388,-0.27071 -0.55577,-0.5442 -1.0042,-0.60776 -0.50964,-0.0722 -1.07006,-0.59133 -1.49477,-1.38455 -0.57754,-1.07864 -1.1158,-1.43981 -3.58842,-2.40779 -2.81938,-1.10372 -4.08105,-2.14405 -2.60022,-2.14405 0.83321,0 0.828,0.0529 0.15365,-1.56099 -0.29745,-0.71191 -0.51835,-1.48536 -0.49089,-1.71878 0.0806,-0.68536 -0.43424,-2.0119 -0.78088,-2.0119 -0.17556,0 -0.50589,-0.43656 -0.73407,-0.97014 -0.22818,-0.53357 -1.27126,-2.03755 -2.31797,-3.34216 -1.0467,-1.30461 -1.8457,-2.54418 -1.77556,-2.7546 0.20924,-0.62771 2.82273,1.50092 4.71043,3.83653 0.96436,1.19317 1.99151,2.17611 2.28255,2.18431 0.29104,0.008 0.84666,0.51404 1.23472,1.1241 0.38805,0.61005 1.12498,1.358 1.6376,1.6621 0.51263,0.30411 1.42544,0.92091 2.02848,1.37069 1.18682,0.8852 1.42834,0.54707 0.76124,-1.06576 -0.18435,-0.44569 -0.77009,-2.42371 -1.30165,-4.39561 -0.89875,-3.33402 -1.03554,-3.59907 -1.95208,-3.78238 -0.54209,-0.10842 -2.29028,-0.83661 -3.88487,-1.61821 -1.59459,-0.7816 -3.22438,-1.42264 -3.62176,-1.42454 -0.98417,-0.005 -4.71346,-1.80451 -4.16211,-2.0087 0.24253,-0.0898 1.83003,0.15885 3.52778,0.55259 3.74859,0.86938 7.49654,1.31219 7.49654,0.88569 0,-0.55982 -1.88914,-1.15612 -4.40973,-1.3919 -2.78672,-0.26069 -7.12463,-1.616158 -9.03957,-2.824608 -0.70315,-0.44373 -2.04402,-1.03002 -2.9797,-1.30285 -1.78284,-0.51985 -2.39982,-1.16725 -1.31761,-1.38257 0.40636,-0.0808 -0.24029,-0.53892 -1.78656,-1.26556 -1.96287,-0.92241 -2.34675,-1.23125 -2.01991,-1.62507 0.32454,-0.39105 0.10837,-0.61105 -1.10433,-1.12391 -1.2746296,-0.53904 -1.3841396,-0.65856 -0.708,-0.77262 0.43993,-0.0742 1.36338,0.051 2.05211,0.27833 0.68873,0.2273 1.34743,0.31808 1.46378,0.20173 0.11636,-0.11635 0.14541,-0.2614 0.0646,-0.32232 -1.72854,-1.302624 -3.83991,-3.011304 -4.4169496,-3.574534 -0.40821,-0.39843 -1.72726,-1.58024 -2.93123,-2.62625 -1.50443,-1.30704 -2.0752,-2.01567 -1.82502,-2.26585 0.5333,-0.5333 1.61892,0.0608 4.3122,2.36 2.0838396,1.7789 3.2846496,2.45847 3.0383196,1.71948 -0.0914,-0.27417 0.20031,-0.44097 0.77118,-0.44097 0.18161,0 0.68709,0.635 1.12329,1.41111 0.49924,0.88828 1.04648,1.41111 1.47697,1.41111 0.38261,0 1.66562,1.02621 2.91246,2.329524 1.22572,1.28123 2.4279,2.26308 2.6715,2.18188 0.26625,-0.0888 -0.44184,-1.09868 -1.77533,-2.53208 -2.21686,-2.382964 -2.47325,-2.946034 -1.15022,-2.526124 0.86923,0.27589 5.34723,4.973014 5.34723,5.608894 0,0.54301 3.11868,2.87294 3.42949,2.56214 0.23517,-0.23517 0.12814,-0.37695 -3.0275,-4.01047 -1.22276,-1.40793 -2.16673,-2.729254 -2.09772,-2.936274 0.18301,-0.54904 3.65265,2.128054 4.37407,3.374924 1.38513,2.39402 4.85763,6.17815 5.66936,6.17815 0.62662,0 0.59874,-0.51376 -0.0574,-1.05833 -0.29104,-0.24154 -0.52917,-0.63404 -0.52917,-0.87221 0,-0.23817 -0.44341,-1.05217 -0.98536,-1.80889 -1.14131,-1.59359 -2.19606,-3.74065 -2.17517,-4.42777 0.018,-0.591144 2.44134,2.0467 3.15948,3.43909 0.29046,0.56317 1.04452,1.75728 1.67569,2.65358 0.63117,0.8963 1.14759,1.85042 1.14759,2.12027 0,0.56896 1.6307,2.423708 2.13094,2.423708 0.49728,0 0.41868,-0.50826 -0.33951,-2.195428 -1.4611,-3.25127 -1.80579,-4.13814 -2.01511,-5.18474 -0.30249,-1.51247 0.29507,-1.35599 1.23962,0.32461 0.4362,0.77611 0.99136,1.41111 1.23368,1.41111 0.24233,0 0.89687,0.47625 1.45454,1.05834 1.36095,1.42052 1.71181,1.33318 1.04597,-0.26039 -0.85012,-2.03464 -1.23658,-4.03635 -0.74799,-3.87432 0.6766,0.22439 4.37598,8.040198 4.878,10.305918 0.33247,1.50046 0.6477,2.14808 1.08583,2.23073 0.68276,0.1288 0.85018,-0.94152 0.3108,-1.98694 -0.45155,-0.87519 -0.86615,-9.237228 -0.45799,-9.237228 0.18496,0 0.45357,0.27781 0.59691,0.61736 0.42247,1.00074 1.19967,6.792668 1.21896,9.084028 0.0198,2.35462 0.43429,3.41801 1.08039,2.77191 0.37603,-0.37603 0.0579,-4.95201 -0.59119,-8.504548 -0.3649,-1.99709 0.47995,-1.26721 1.22506,1.05834 0.953237,2.975178 1.099517,4.333898 0.703867,6.538118 -0.364277,2.02949 -0.153237,3.25146 0.56154,3.25146 0.75396,0 1.28013,-8.80767 0.71792,-12.017328 -0.15073,-0.86054 -0.29603,-1.88212 -0.32289,-2.27017 -0.0898,-1.29771 -1.911677,-3.63666 -3.818637,-4.902424 -2.85138,-1.89264 -4.90543,-2.6793 -7.92429,-3.03484 -1.50549,-0.17731 -4.14525,-0.73547 -5.86613,-1.24037 -3.11727,-0.91459 -6.92529,-2.77297 -6.92529,-3.37966 0,-0.47423 0.46844,-0.39791 2.71354,0.44208 2.23302,0.83548 7.78094,2.41382 8.48467,2.41382 0.2439,0 0.44345,-0.23356 0.44345,-0.51901 0,-0.34106 -0.87696,-0.77277 -2.55764,-1.25908 -1.4067,-0.40704 -3.27201,-0.99366 -4.14513,-1.3036 -2.24301,-0.79624 -6.68811,-3.68896 -6.6961,-4.3576 -0.004,-0.32458 -0.81408,-0.95546 -1.92674,-1.50028 -2.13435,-1.04508 -2.72748,-1.64376 -1.62854,-1.64376 1.02676,0 0.9014,-0.53289 -0.33196,-1.41112 -0.58208,-0.41448 -1.05833,-0.98589 -1.05833,-1.26981 0,-0.28392 -0.23813,-0.6076 -0.52917,-0.71928 -0.29104,-0.11168 -0.52916,-0.44141 -0.52916,-0.73273 0,-0.38882 0.23452,-0.4708 0.88194,-0.30831 1.00515,0.25228 1.23369,-0.39138 0.26458,-0.74515 -0.33955,-0.12395 -0.98424,-0.50663 -1.43265,-0.8504 -0.44841,-0.34376 -1.6806,-0.81867 -2.73819,-1.05535 -2.31313,-0.51766 -3.31366,-1.37452 -1.60499,-1.37452 0.60584,0 1.10153,-0.15875 1.10153,-0.35278 0,-0.19403 -0.17761,-0.35278 -0.39469,-0.35278 -0.60073,0 -4.5413796,-3.28962 -4.5428896,-3.79236 -0.002,-0.66447 1.36244,-0.52943 2.3284896,0.23046 0.46947,0.36929 1.14897,0.59419 1.51,0.49978 0.45418,-0.11877 0.91391,0.19063 1.49219,1.00426 1.57367,2.21411 3.97908,3.77424 3.30878,2.14606 -0.52702,-1.28016 -0.59712,-1.85209 -0.22701,-1.85209 0.56666,0 2.87513,2.41176 2.87513,3.00378 0,0.46451 3.97324,4.75733 4.40317,4.75733 0.42423,0 0.12318,-1.07638 -0.72597,-2.59568 -0.94844,-1.69695 -1.01936,-2.87237 -0.1733,-2.87237 0.2726,0 0.75867,0.47625 1.08015,1.05833 0.32149,0.58209 0.91602,1.10727 1.32118,1.16708 0.43101,0.0636 0.97276,0.60629 1.30571,1.30793 0.31298,0.65955 0.71903,1.29188 0.90234,1.40517 0.43353,0.26794 1.76171,3.27318 1.77399,4.01397 0.0126,0.7581 2.08495,3.22715 2.09768,2.49919 0.005,-0.29852 -0.30287,-1.15544 -0.68464,-1.90426 -0.38177,-0.74882 -0.60434,-1.50676 -0.4946,-1.68432 0.10973,-0.17755 -0.0788,-0.63032 -0.41889,-1.00615 -0.34012,-0.37583 -0.47473,-0.68838 -0.29914,-0.69455 0.1756,-0.006 0.058,-0.21001 -0.26133,-0.45298 -1.29577,-0.98592 -2.66922,-4.47469 -1.76159,-4.47469 0.76136,0 4.95342,7.48186 5.65787,10.09798 0.44009,1.63437 1.73526,3.70319 2.46954,3.94467 0.39576,0.13015 0.44512,-0.14063 0.24911,-1.36641 -0.13445,-0.8408 -0.37666,-1.69536 -0.53826,-1.89901 -0.39461,-0.49733 -1.79494,-6.70649 -1.78017,-7.89346 l 0.0117,-0.94349 0.69381,0.83283 c 0.3816,0.45806 0.69382,1.04885 0.69382,1.31286 0,0.26401 0.3797,1.33858 0.84377,2.38793 0.46407,1.04935 0.95438,2.60169 1.08958,3.44965 0.34441,2.16013 1.25671,5.35511 1.64818,5.77211 0.21516,0.2292 0.42431,0.19467 0.60651,-0.10014 0.16579,-0.26826 0.5386,-0.35 0.92319,-0.20242 0.57111,0.21915 0.61784,0.11127 0.40745,-0.94069 -0.13071,-0.65353 -1.029,-2.89118 -1.99622,-4.97255 -0.96721,-2.08137 -1.75857,-3.95456 -1.75857,-4.16264 0,-1.82422 3.22063,2.97596 4.3987,6.55603 0.50079,1.52187 1.05298,3.08453 1.22708,3.47259 0.17411,0.38805 0.42104,1.18091 0.54875,1.76191 0.24298,1.10543 0.77702,1.94225 1.2395,1.94225 0.31514,0 -0.25564,-2.79215 -0.68225,-3.3375 -0.46893,-0.59943 -2.20337,-6.51304 -2.08159,-7.09719 0.20263,-0.97188 0.81001,-0.57955 1.23115,0.79526 0.22731,0.74203 1.14013,3.39555 2.02847,5.89671 0.88836,2.50116 1.61519,4.84272 1.61519,5.20347 0,0.36076 0.23051,0.65592 0.51225,0.65592 0.42344,0 0.50557,-0.79253 0.47373,-4.57137 -0.0277,-3.29206 0.0905,-4.72678 0.42239,-5.12671 0.690677,-0.83223 -0.13552,-2.9241 -1.70836,-4.32544 -3.80863,-3.39335 -5.23379,-4.2877 -7.3844,-4.63404 -1.85888,-0.29937 -5.25373,-1.80433 -8.10241,-3.59186 -0.91383,-0.57343 -1.03167,-1.03392 -0.26459,-1.03392 0.66366,0 0.68904,-0.57794 0.0418,-0.9526 -0.99579,-0.57646 -3.39322,-2.67761 -3.39322,-2.97388 0,-0.72215 1.29881,-0.18855 3.58052,1.47103 2.63996,1.92014 4.18059,2.68252 4.18059,2.06875 0,-0.51107 -2.72823,-2.7883 -3.34051,-2.7883 -0.10675,0 -1.39732,-0.88983 -2.86795,-1.97741 -2.16033,-1.59764 -2.6373,-2.11721 -2.4835,-2.70532 0.12378,-0.47334 -0.15573,-1.16975 -0.79926,-1.99134 -0.54428,-0.69488 -0.92329,-1.45218 -0.84224,-1.68289 0.0811,-0.2307 -0.10132,-0.799 -0.40527,-1.26288 -0.59441,-0.90719 -0.43229,-1.38427 0.36628,-1.07783 0.85693,0.32884 0.54902,-0.85755 -0.54636,-2.10511 -0.57256,-0.65211 -1.04029,-1.49108 -1.03939,-1.86436 9.1e-4,-0.37328 -0.10476,-1.11525 -0.23482,-1.64883 -0.41176,-1.68939 0.79656,-1.15199 2.14324,0.95319 0.67668,1.05784 1.23034,2.08971 1.23034,2.29306 0,0.20335 0.15875,0.36972 0.35277,0.36972 0.19403,0 0.35278,-0.2431 0.35278,-0.54023 0,-1.00236 1.01132,-0.93824 3.34837,0.21229 1.65305,0.8138 2.43499,1.03569 2.7035,0.76719 0.49417,-0.49418 0.0753,-1.1448 -0.73698,-1.1448 -0.92867,0 -6.05798,-2.39487 -6.99058,-3.2639 -0.43657,-0.40681 -0.79375,-0.99129 -0.79375,-1.29885 0,-0.30756 -0.3175,-0.75748 -0.70556,-0.99983 -0.93478,-0.58377 -0.90847,-1.49298 0.0432,-1.49298 0.62556,0 0.6765,-0.0871 0.30958,-0.52916 -0.24154,-0.29105 -0.63644,-0.52917 -0.87756,-0.52917 -0.55704,0 -2.29744,-1.35561 -2.29744,-1.78949 0,-0.17995 0.23813,-0.32718 0.52917,-0.32718 0.77528,0 0.69984,-0.12522 -1.23472,-2.049644 -0.97755,-0.972419 -1.76389,-2.078487 -1.76389,-2.481081 0,-0.718634 0.0153,-0.719594 1.42295,-0.08937 0.78262,0.350391 1.63167,0.922508 1.88676,1.27137 0.26478,0.362104 0.64479,0.522442 0.88556,0.37364 0.57442,-0.355012 1.38978,0.386144 1.98072,1.800475 0.45856,1.0975 1.23234,1.61352 1.23234,0.82183 0,-0.49868 0.96328,-0.43921 1.28371,0.0793 0.14685,0.23762 0.38349,1.29039 0.52585,2.33949 0.34383,2.53364 1.13164,3.37478 0.95613,1.02084 -0.0687,-0.92163 -0.0155,-1.67569 0.11817,-1.67569 0.44387,0 1.56816,1.91916 1.99491,3.4053 0.23137,0.80577 0.73115,1.83765 1.11061,2.29306 0.65005,0.78017 0.69036,0.78725 0.69748,0.12247 0.004,-0.38805 -0.22143,-1.56591 -0.50128,-2.61746 -0.27986,-1.05154 -0.42736,-2.04373 -0.32777,-2.20486 0.38485,-0.62271 0.87307,-0.237 1.4153,1.11815 0.31054,0.77612 0.70387,1.41112 0.87408,1.41112 0.17021,0 0.72969,0.635 1.2433,1.41111 1.11004,1.67738 1.60793,1.81082 1.31632,0.35277 -0.15819,-0.79092 -0.081,-1.05833 0.30553,-1.05833 0.59732,0 2.39322,3.10944 2.39322,4.14365 0,0.38323 0.363,1.23487 0.80667,1.89254 0.44367,0.65766 0.9935,2.20861 1.22185,3.44654 0.472,2.55879 0.54293,2.68343 1.35066,2.37348 0.4603,-0.17664 0.53252,-0.4723 0.33376,-1.3665 -0.1395,-0.62761 -0.44881,-2.11911 -0.68736,-3.31447 -0.23855,-1.19535 -0.69762,-2.57613 -1.02017,-3.0684 -0.32255,-0.49228 -0.4573,-0.97487 -0.29944,-1.07243 0.15785,-0.0976 0.63028,0.52916 1.04982,1.39271 0.41955,0.86356 1.00799,1.5701 1.30764,1.5701 0.29965,0 0.6362,0.23813 0.74788,0.52917 0.11169,0.29104 0.413,0.52917 0.66959,0.52917 0.3685,0 0.33175,-0.47125 -0.1749,-2.24295 -0.84596,-2.95814 -1.26915,-3.69396 -2.97075,-5.16539 -0.78534,-0.67909 -3.00442,-2.80144 -4.9313,-4.71633 -2.43389,-2.41872 -4.06393,-3.729486 -5.33943,-4.293569 -1.89168,-0.836592 -3.00063,-1.70229 -3.00063,-2.342429 0,-0.214054 0.36589,-0.27399 0.88194,-0.14447 0.50858,0.127646 0.88195,0.06916 0.88195,-0.138144 0,-0.197725 -0.13446,-0.359499 -0.2988,-0.359499 -0.16434,0 -0.62717,-0.277813 -1.02851,-0.617362 -0.40133,-0.339548 -1.02094,-0.807581 -1.37689,-1.040073 -0.54725,-0.357432 -0.56886,-0.475933 -0.13994,-0.767339 0.42364,-0.287817 0.34231,-0.582647 -0.49338,-1.788539 -0.55035,-0.794152 -0.90276,-1.541779 -0.78315,-1.661395 0.22997,-0.22997 2.2275,0.467733 2.97555,1.039309 0.24331,0.18591 0.58793,0.833992 0.76582,1.440181 0.30347,1.034087 0.33853,1.053432 0.56765,0.313207 0.39704,-1.282733 1.26477,-0.431628 2.08603,2.046076 0.79,2.383369 1.89415,3.445941 1.49215,1.435959 -0.12161,-0.608069 -0.14231,-1.10558 -0.046,-1.10558 0.0963,0 0.78178,0.401464 1.52325,0.892143 0.78456,0.519197 1.58907,0.79968 1.92451,0.670959 0.39712,-0.152386 0.70233,0.05521 0.98128,0.667437 0.22269,0.488742 0.59782,0.814586 0.83363,0.724098 0.77863,-0.298789 1.35298,0.919695 1.48174,3.14349 0.16087,2.77838 0.38765,3.77965 0.85603,3.77965 0.24303,0 0.29017,-0.65054 0.13634,-1.88174 -0.17895,-1.43225 -0.11026,-2.0066 0.28758,-2.404442 0.45226,-0.452255 0.45675,-0.679533 0.0333,-1.686535 -0.26915,-0.640113 -0.48936,-1.394333 -0.48936,-1.676045 0,-0.44201 -1.15678,-2.214925 -2.29305,-3.514407 -1.46701,-1.67771 -7.40993,-7.608401 -8.50198,-8.484474 -1.09154,-0.875661 -1.27274,-1.181983 -0.93788,-1.585462 0.32465,-0.391184 0.26906,-0.740147 -0.25522,-1.602261 -0.86135,-1.416378 -1.30257,-3.622967 -0.72444,-3.622967 0.23031,0 0.76391,0.409999 1.18579,0.911109 0.42188,0.501109 1.13522,1.32988 1.58519,1.841713 0.44998,0.511833 0.90638,1.371834 1.01424,1.911114 0.21259,1.062937 0.45587,1.196989 1.06566,0.587196 0.28924,-0.289232 0.5476,-0.09496 0.97635,0.734149 0.37347,0.722204 0.7658,1.057325 1.09152,0.932336 0.28433,-0.109107 0.70002,0.111565 0.94296,0.500573 0.23896,0.382635 0.72757,0.695699 1.08581,0.695699 0.39975,0 0.80564,0.408792 1.05082,1.058334 0.22106,0.585655 0.65889,1.058333 0.98032,1.058333 0.48069,0 0.53751,-0.228104 0.32952,-1.322917 -0.3383,-1.780735 -1.32162,-4.578959 -2.03122,-5.780226 -0.31855,-0.539249 -1.56035,-2.006038 -2.75956,-3.25953 -2.21366,-2.31386 -2.98814,-3.8794207 -2.27223,-4.5932157 0.28586,-0.285024 0.86528,0.114749 2.15343,1.4857897 1.6126,1.716356 2.49467,2.175146 2.48103,1.290446 -0.005,-0.345722 -0.1764,-1.084023 -1.30582,-5.6356247 -0.59727,-2.40703 -0.85321,-5.181773 -0.56273,-6.1006467 0.11189,-0.353937 0.28024,-0.333111 0.75098,0.0929 0.5182,0.4689647 1.02188,2.1246687 1.62178,5.3310767 0.0936,0.500078 0.3933,0.725225 0.93932,0.705556 0.92818,-0.03344 1.30721,1.266401 0.61314,2.102703 -0.23063,0.277891 -0.32276,0.756904 -0.20474,1.064472 0.11803,0.307569 0.0557,0.8561427 -0.13854,1.2190547 -0.22687,0.423914 -0.23358,0.950852 -0.0187,1.473749 0.18391,0.447651 0.4317,1.850865 0.55063,3.118253 0.25652,2.733595 0.4072,3.031075 1.69954,3.355431 0.88418,0.221917 0.97894,0.160656 0.91174,-0.589391 -0.13397,-1.495028 0.0245,-2.071771 0.5692,-2.071771 0.29396,0 1.2695,-0.714375 2.16786,-1.5875 0.89836,-0.873125 1.77407,-1.5875 1.94603,-1.5875 0.94248,0 0.44979,2.013562 -1.04364,4.265257 -0.33337,0.502627 -1.04269,1.571035 -1.57626,2.374239 -0.53357,0.803205 -0.97014,1.616691 -0.97014,1.807748 0,0.191057 -0.30157,0.508773 -0.67016,0.706035 -1.21724,0.651452 -1.29406,4.829855 -0.1868,10.161305 0.27167,1.308068 0.80883,0.898281 0.92487,-0.705556 0.0871,-1.204438 0.23585,-1.488678 0.7561,-1.445266 0.41907,0.03497 0.77013,-0.297415 0.99479,-0.941855 0.19094,-0.547742 0.5742,-1.083015 0.85168,-1.189496 0.27749,-0.10648 0.50452,-0.436708 0.50452,-0.733839 0,-0.297131 0.15875,-0.540239 0.35278,-0.540239 0.70181,0 0.88963,-0.10581 1.347047,-0.758877 0.67828,-0.968377 1.23249,-0.40903 1.002,1.011289 -0.16214,0.999205 -0.0999,1.183336 0.34275,1.013484 0.2975,-0.114159 0.60729,-0.207562 0.68844,-0.207562 0.0811,0 0.14754,-0.308131 0.14754,-0.684736 0,-0.376605 0.15875,-0.782849 0.35277,-0.902764 0.19403,-0.119916 0.35278,-0.52616 0.35278,-0.902765 0,-0.657306 0.34826,-0.840149 1.34478,-0.706048 0.25456,0.03426 0.95938,-0.423185 1.56628,-1.016536 1.42843,-1.396555 2.06338,-1.398226 1.95723,-0.0051 -0.0589,0.773336 -0.50456,1.434021 -1.59311,2.361898 -1.67812,1.430435 -1.86006,1.856099 -0.79332,1.856099 1.38841,0 0.0983,1.327779 -1.86333,1.917705 -2.16991,0.652567 -2.97343,1.273575 -4.137357,3.197573 -0.4695,0.776111 -0.94507,1.490486 -1.05681,1.5875 -0.11173,0.09701 -0.49504,0.634435 -0.85178,1.194269 -0.9894,1.552644 -1.003,7.713794 -0.0261,11.821344 0.39961,1.68023 0.80722,0.19229 0.44367,-1.61958 -0.42324,-2.10936 -0.13357,-3.98056 0.51571,-3.33129 0.22312,0.22313 0.42316,0.76203 0.44451,1.19756 0.0214,0.43552 0.0681,1.55915 0.10395,2.49696 0.0426,1.11556 0.20682,1.65786 0.47496,1.56848 0.27511,-0.0917 0.42815,-1.47019 0.46553,-4.19346 0.0306,-2.23127 0.174677,-4.24936 0.320097,-4.48465 0.5852,-0.94688 0.9212,0.13126 0.9212,2.95591 0,2.17987 0.12066,2.97779 0.45028,2.97779 0.33514,0 0.42722,-0.72071 0.3601,-2.81851 -0.098,-3.06399 0.31828,-4.7737 1.09026,-4.47746 0.27023,0.1037 0.67269,-0.17646 0.92158,-0.64153 0.24303,-0.45409 0.64777,-0.7466 0.89943,-0.65003 0.25167,0.0966 0.64067,-0.16654 0.86446,-0.584692 0.22379,-0.418153 0.62222,-0.67765 0.88539,-0.576659 0.31037,0.1191 0.55675,-0.172611 0.70118,-0.830207 0.12247,-0.557605 0.4755,-1.223233 0.78452,-1.479175 0.50401,-0.41745 0.54245,-0.29287 0.37343,1.210346 -0.13708,1.219191 -0.0662,1.675695 0.26011,1.675695 0.24668,0 0.45865,-0.357188 0.47104,-0.79375 0.033,-1.163099 0.36003,-3.519406 0.56122,-4.043682 0.27198,-0.708772 0.902,-0.533232 0.902,0.251321 0,0.391975 0.23519,0.705555 0.52917,0.705555 0.29104,0 0.52917,-0.299354 0.52917,-0.66523 0,-1.124969 1.68799,-3.920881 2.36717,-3.920881 0.58762,0 0.4794,2.362842 -0.13144,2.869798 -0.54923,0.455814 -0.63667,1.716313 -0.11907,1.716313 0.70846,0 0.32057,0.594042 -1.04999,1.608022 -1.61576,1.195385 -1.80444,1.722825 -0.52909,1.479026 1.29634,-0.24781 1.4399,0.35557 0.35422,1.48877 -0.61259,0.63941 -0.79596,1.04178 -0.51712,1.13473 0.76012,0.25337 -0.23875,1.5563 -1.6854,2.19846 -2.84108,1.26112 -4.12346,2.29663 -3.55193,2.86817 0.21626,0.21626 2.36816,-0.81089 2.74951,-1.3124 0.34661,-0.45582 2.11314,-0.73522 2.11314,-0.33423 0,0.46886 -3.16537,2.84283 -3.80696,2.85515 -0.70139,0.0135 -3.93889,1.55924 -3.94698,1.88452 -0.004,0.15855 -0.52311,0.81109 -1.1537,1.45009 -1.19834,1.21432 -1.33762,1.38566 -2.72244,3.34915 -0.772507,1.09531 -0.844597,1.51954 -0.779347,4.58611 0.10508,4.93865 0.942197,9.55212 1.784177,9.83278 0.36618,0.12206 0.40289,-0.10437 0.16732,-1.03196 -0.40518,-1.59542 -0.23944,-6.32411 0.26581,-7.58369 l 0.40634,-1.01298 0.31686,1.14653 c 0.17428,0.63059 0.44321,1.14653 0.59762,1.14653 0.15442,0 0.51537,-0.75406 0.80212,-1.67569 0.30363,-0.97588 0.73465,-1.67959 1.03208,-1.68502 0.89718,-0.0164 1.30674,-0.48045 1.54503,-1.75067 0.14967,-0.7978 0.43143,-1.23862 0.79171,-1.23862 0.4382,0 0.51464,0.24832 0.35297,1.14653 -1.00597,5.58884 -1.01926,5.86226 -0.2622,5.39436 0.20694,-0.12789 0.37625,-0.74868 0.37625,-1.37954 0,-1.27027 1.47204,-5.30767 2.25576,-6.18696 0.27546,-0.30904 0.68323,-1.24685 0.90617,-2.08401 0.24154,-0.90706 0.57555,-1.46193 0.82656,-1.37315 0.43815,0.15497 0.44241,0.3866 0.0581,3.15985 -0.14816,1.06914 -0.10008,1.6757 0.13284,1.6757 0.56096,0 0.74711,-0.4867 0.933,-2.43927 0.17071,-1.79325 0.67166,-3.16554 1.86944,-5.12113 0.67758,-1.10627 1.48482,-1.59147 1.48482,-0.89247 0,0.80788 1.06619,-0.42176 1.82083,-2.09996 0.75633,-1.68197 1.61586,-2.85273 2.09437,-2.85273 0.39113,0 0.20166,2.27903 -0.23825,2.8658 -0.20022,0.26708 -0.54434,0.90881 -0.7647,1.42607 -0.32356,0.75951 -0.30288,0.97801 0.10744,1.13546 0.27945,0.10723 0.50809,0.33011 0.50809,0.49528 0,0.47703 -1.87011,2.39652 -2.64584,2.71571 -0.69558,0.28621 -0.69577,0.29261 -0.0134,0.45238 0.38067,0.0891 0.75109,-0.0148 0.82315,-0.23099 0.1858,-0.55739 1.13055,-0.48933 1.13055,0.0815 0,0.26097 -0.3175,0.76183 -0.70555,1.11301 -0.83842,0.75876 -0.90642,1.23473 -0.17639,1.23473 0.83212,0 0.62591,0.54752 -0.61736,1.63914 -0.75561,0.66345 -1.1097,1.26509 -1.0385,1.76456 0.0811,0.56871 -0.40322,1.14969 -1.94028,2.3277 -1.12657,0.8634 -2.65551,1.85578 -3.39764,2.20528 -0.74214,0.3495 -1.59383,1.00859 -1.89266,1.46466 -0.29883,0.45607 -0.7235,0.83611 -0.94372,0.84454 -0.22022,0.008 -1.59102,1.43521 -3.04623,3.17062 -1.45521,1.73541 -2.82952,3.22599 -3.05402,3.31241 -0.89544,0.34466 -0.25715,14.29695 0.69773,15.25184 0.55089,0.55089 0.83703,-0.50251 0.8497,-3.12813 0.008,-1.6079 0.26274,-3.75943 0.56662,-4.78116 0.72565,-2.43988 0.88859,-2.68105 1.47992,-2.19029 0.38134,0.31649 0.55484,0.10744 0.86414,-1.0412 0.22142,-0.82232 0.60073,-1.4372 0.88658,-1.4372 0.30302,0 0.58608,-0.52049 0.71944,-1.32291 0.3217,-1.93567 0.47063,-2.27558 0.88488,-2.01956 0.21825,0.13489 0.29214,0.83722 0.17865,1.69806 -0.10644,0.80741 -0.26069,2.10302 -0.34277,2.87914 -0.0821,0.77611 -0.26509,2.34527 -0.4067,3.48703 -0.20716,1.6703 -0.16414,2.04481 0.22016,1.91671 0.26992,-0.09 0.74385,-1.37622 1.08985,-2.95787 0.33673,-1.53926 1.00313,-3.67178 1.48089,-4.73893 0.47776,-1.06715 1.14705,-2.61497 1.48731,-3.43958 0.7009,-1.6986 1.40837,-2.01488 1.10411,-0.49359 -0.18674,0.93373 -0.1339,0.99286 0.73831,0.82613 0.51669,-0.0988 1.21708,-0.51166 1.55642,-0.91753 0.60646,-0.72536 0.61712,-0.72591 0.62548,-0.0324 0.005,0.38806 -0.38195,1.49931 -0.85917,2.46945 -0.92274,1.8758 -1.12054,2.99861 -0.52825,2.99861 0.19884,0 0.51241,-0.39687 0.69683,-0.88194 0.18442,-0.48507 0.47815,-0.88195 0.65273,-0.88195 0.17457,0 0.41102,-0.46808 0.52545,-1.04019 0.26108,-1.30541 2.60012,-4.60425 3.26463,-4.60425 0.74482,0 0.61021,0.37698 -0.74207,2.07812 -1.20747,1.51898 -1.56099,2.50799 -0.89647,2.50799 0.36862,0 2.13462,-2.18893 2.13462,-2.64584 0,-0.57053 1.81267,-2.64583 2.31101,-2.64583 0.78582,0 0.58647,0.7604 -0.54684,2.08582 -1.07152,1.25319 -1.09145,2.25306 -0.0257,1.28855 0.33557,-0.30368 0.75637,-0.5579 0.93512,-0.56493 0.17875,-0.007 0.6425,-0.68172 1.03055,-1.49931 0.38806,-0.81758 0.86323,-1.40714 1.05594,-1.31013 0.19271,0.097 0.30482,0.37483 0.24912,0.61736 -0.14944,0.65076 0.19292,0.54516 1.52395,-0.47006 0.65694,-0.50107 1.47979,-0.85045 1.82855,-0.7764 0.52578,0.11164 0.39303,0.3744 -0.777,1.53799 -0.77611,0.77185 -1.80799,1.66852 -2.29306,1.99262 -0.87769,0.58642 -0.87812,0.58935 -0.0882,0.60776 0.90608,0.0211 1.07524,0.89334 0.23573,1.21549 -0.30691,0.11777 -1.17521,0.21413 -1.92955,0.21413 -0.75434,0 -1.93681,0.3175 -2.62771,0.70556 -0.6909,0.38805 -1.47249,0.70555 -1.73687,0.70555 -0.51891,0 -1.05828,1.02661 -0.7181,1.36679 0.11411,0.1141 0.66992,-0.058 1.23514,-0.38234 1.4858,-0.85274 1.5764,-0.21546 0.14903,1.04825 -1.20657,1.06821 -1.56818,1.84786 -0.85706,1.84786 0.24863,0 0.25143,0.21255 0.009,0.66595 -0.56175,1.04964 -5.63402,4.11717 -7.8844,4.7682 -1.1233,0.32497 -2.31793,0.86242 -2.65473,1.19432 -0.3368,0.33191 -1.73412,1.59639 -3.10515,2.80997 -2.23496,1.97827 -2.53371,2.39789 -2.8884,4.05694 -0.21759,1.01775 -0.40255,2.08858 -0.41102,2.37962 -0.008,0.29104 -0.10552,1.95791 -0.21565,3.704156 -0.20747,3.2899 0.12274,5.85227 0.78252,6.0722 0.22597,0.0753 0.47683,-0.69271 0.61767,-1.89111 0.13045,-1.10987 0.36324,-2.18716 0.51731,-2.39396 0.15408,-0.20681 0.57184,-1.3701 0.92836,-2.585096 0.35653,-1.21499 0.88456,-2.40521 1.17341,-2.64494 0.45758,-0.37976 0.49285,-0.22029 0.27403,1.23894 -0.14103,0.94045 -0.11232,1.674806 0.0655,1.674806 0.17415,0 0.745,-0.992186 1.26855,-2.204856 0.71833,-1.66384 1.03077,-2.07753 1.2733,-1.68591 0.41711,0.67352 0.61614,0.44376 1.39656,-1.61217 0.70756,-1.86401 1.69722,-2.6744 1.30603,-1.06945 -0.1244,0.51037 -0.32796,1.34551 -0.45235,1.85588 -0.43844,1.7988 0.7209,0.68787 2.17906,-2.08807 1.57041,-2.98962 2.28045,-3.92695 2.28045,-3.01045 0,0.30615 -0.23813,1.12655 -0.52917,1.82311 -0.58629,1.40319 -0.71611,2.6895 -0.21734,2.15344 0.1715,-0.18432 0.97908,-1.644 1.79461,-3.24372 1.66354,-3.26315 2.12177,-3.75944 2.13812,-2.31571 0.0109,0.96386 0.0262,0.97167 0.55857,0.28541 0.30104,-0.38806 1.12356,-1.69775 1.82781,-2.91042 1.2356,-2.12763 1.83573,-2.7005 1.83573,-1.75234 0,0.24888 -0.59531,1.53213 -1.32292,2.85167 -2.01254,3.64982 -2.62599,4.89555 -2.93307,5.95623 -0.23115,0.79839 -0.17047,0.97013 0.34276,0.97013 0.4451,0 0.81677,-0.57803 1.29829,-2.01914 0.37107,-1.11052 1.1906,-2.6994 1.82119,-3.53083 0.63059,-0.83143 1.14653,-1.61117 1.14653,-1.73276 0,-0.1216 0.3605,-0.55678 0.80111,-0.96709 0.44062,-0.4103 1.17054,-1.34553 1.62206,-2.07828 1.10443,-1.79234 1.73495,-2.37861 2.31767,-2.155 0.28316,0.10865 0.5799,-0.10552 0.70877,-0.51157 0.27511,-0.8668 1.25317,-1.30682 1.25317,-0.56379 0,0.29178 -0.22998,0.88211 -0.51106,1.31185 -0.28108,0.42973 -0.75946,1.37665 -1.06307,2.10425 -0.4438,1.0636 -0.45961,1.32292 -0.0806,1.32292 0.5135,0 2.00754,-2.71983 2.00754,-3.65461 0,-0.3183 0.15875,-0.57872 0.35278,-0.57872 0.19403,0 0.35278,-0.18821 0.35278,-0.41824 0,-0.69087 1.44955,-2.01431 1.98232,-1.80987 0.27286,0.10471 0.70713,0.0152 0.96505,-0.19881 0.60275,-0.50024 1.04649,-0.075 0.54822,0.52543 -0.20837,0.25106 -0.32606,0.69805 -0.26153,0.99331 0.0861,0.39395 0.53983,0.15552 1.70483,-0.89588 1.97693,-1.78415 2.55878,-2.10457 3.15385,-1.73679 0.36688,0.22675 0.29846,0.43421 -0.31184,0.94553 -2.51967,2.111 -2.88544,2.59532 -1.96007,2.59532 1.17322,0 0.46565,1.0472 -0.97014,1.43579 -2.12059,0.57393 -2.78632,0.92706 -4.14944,2.201 -1.38493,1.29434 -1.02699,1.53738 1.44588,0.98173 1.02919,-0.23125 1.67563,-0.23127 1.90686,-5e-5 0.4247,0.42465 -0.27895,0.95301 -1.67274,1.25603 -0.53358,0.116 -0.97014,0.41589 -0.97014,0.66641 0,0.25053 -0.47625,0.66631 -1.05833,0.92397 -0.60717,0.26876 -1.05834,0.7376 -1.05834,1.0998 0,0.34758 -0.55495,0.95876 -1.23472,1.35984 -1.45869,0.86065 -1.63778,1.54201 -0.31825,1.21083 0.66379,-0.1666 0.87575,-0.10419 0.76878,0.22634 -0.23994,0.74138 -5.32277,3.08434 -7.1924,3.31538 -2.10018,0.25954 -3.58906,0.84377 -3.84411,1.50842 -0.2995,0.7805 0.1024,0.91729 1.35948,0.46273 1.37398,-0.49684 5.12461,-0.54963 5.86316,-0.0825 0.41407,0.26188 0.32155,0.40151 -0.46394,0.70015 -0.53963,0.20517 -1.34918,0.37303 -1.79898,0.37303 -0.48934,0 -0.8842,0.25379 -0.98306,0.63183 -0.0942,0.36037 -0.79613,0.840036 -1.6337,1.116456 -1.57697,0.52045 -2.3527,1.18863 -2.01476,1.73543 0.11544,0.1868 -1.25995,0.89673 -3.05644,1.57762 -4.05542,1.53706 -4.25784,1.59317 -6.52721,1.80922 -1.40531,0.13378 -2.35271,0.5197 -3.94638,1.60753 -2.41236,1.64666 -2.55248,1.95812 -3.32778,7.396918 -0.88851,6.23302 -0.97385,7.39931 -0.72571,9.91761 0.34725,3.52399 0.98934,3.15789 1.51554,-0.86409 0.59293,-4.53199 1.90857,-8.89808 2.55996,-8.4955 0.17467,0.10796 0.23901,0.32342 0.14298,0.47881 -0.096,0.15538 -0.27393,1.37473 -0.39532,2.70965 -0.12139,1.33492 -0.40879,2.824 -0.63866,3.30907 -0.51815,1.0934 -0.52333,3.24765 -0.008,3.41972 0.21021,0.0702 0.57363,-0.51126 0.80759,-1.29218 0.23397,-0.78091 1.19217,-3.04751 2.12934,-5.03688 0.93717,-1.98938 1.8239,-4.003 1.97051,-4.47473 0.37668,-1.21204 1.58663,-3.12569 1.58822,-2.51191 0.002,0.92724 -1.82166,6.50825 -2.68199,8.20604 -0.8131,1.60457 -1.12869,3.474 -0.57989,3.43505 0.14552,-0.0103 1.25728,-1.39939 2.47058,-3.0868 1.2133,-1.68742 2.76111,-3.67218 3.43958,-4.41058 0.67848,-0.7384 1.23359,-1.42827 1.23359,-1.53304 0,-0.38694 1.46987,-2.23969 1.77684,-2.23969 0.4364,0 0.03,0.95909 -1.14281,2.697 -0.54275,0.80425 -0.98693,1.598 -0.98708,1.76389 -1.5e-4,0.16588 -0.57209,0.93661 -1.27097,1.71272 -2.97596,3.30481 -3.77895,4.91006 -2.25708,4.51208 0.91234,-0.23858 2.60811,-2.17851 3.39202,-3.88041 1.58014,-3.43053 7.19186,-11.020668 7.19186,-9.727348 0,0.21171 -1.03188,1.917538 -2.29306,3.790728 -1.26118,1.87319 -2.29305,3.5553 -2.29305,3.73802 0,0.18271 -0.14272,0.33221 -0.31716,0.33221 -0.27427,0 -1.79951,2.5508 -1.79951,3.00947 0,0.091 0.27875,0.16553 0.61944,0.16553 0.34383,0 0.82036,-0.45392 1.07102,-1.02019 0.41593,-0.93966 2.2596,-3.00175 4.33823,-4.8522 0.46776,-0.41641 1.38768,-1.42325 2.04426,-2.23742 0.82734,-1.02591 1.27663,-1.34624 1.4637,-1.04356 0.14846,0.2402 0.52407,0.33921 0.83469,0.22001 0.31063,-0.11919 0.56477,-0.1359 0.56477,-0.0371 0,0.27833 -1.47749,2.25787 -2.58937,3.46924 -0.55104,0.60033 -1.23941,1.44172 -1.52972,1.86975 -0.64183,0.94631 -0.32847,1.6543 0.52907,1.19536 0.91656,-0.49053 3.23724,-2.76146 3.23724,-3.16785 0,-0.51409 4.90496,-5.273808 5.69223,-5.523688 0.36178,-0.11482 0.65777,-0.35682 0.65777,-0.53777 0,-0.18095 0.23813,-0.329 0.52917,-0.329 0.75366,0 0.658,0.55339 -0.35278,2.040878 -1.04495,1.53779 -1.08867,1.84107 -0.26458,1.83549 0.34609,-0.002 1.20117,-0.84519 1.946,-1.91818 0.73074,-1.052698 1.81069,-2.281128 2.39988,-2.729848 0.58919,-0.44871 1.69786,-1.35025 2.46373,-2.00343 1.67479,-1.42834 1.81868,-0.8889 0.27521,1.03175 -0.6145,0.76466 -1.02159,1.48596 -0.90465,1.6029 0.26623,0.26623 5.13101,-1.92889 7.02497,-3.16987 0.60754,-0.39807 1.00802,-0.48047 1.15775,-0.2382 0.26754,0.4329 -1.07959,1.7668 -2.51452,2.48982 -2.01611,1.01585 -3.02408,1.84748 -2.57535,2.12481 0.26708,0.16506 0.31499,0.448518 0.12619,0.746518 -0.29878,0.47157 -0.35907,0.65514 -0.44747,1.36236 -0.0243,0.19402 -0.28223,0.35277 -0.57327,0.35277 -0.29104,0 -0.52916,0.15875 -0.52916,0.35278 0,0.19403 0.23812,0.35278 0.52916,0.35278 1.15586,0 0.42286,0.69505 -1.4993,1.42168 -1.41181,0.53371 -2.74112,0.75427 -4.37266,0.72554 -2.4195,-0.0426 -4.1822,0.38691 -4.1822,1.01905 0,0.21875 1.19576,0.36151 3.02801,0.36151 2.22659,0 2.99002,0.11395 2.88448,0.43057 -0.22245,0.66734 -2.69238,1.05953 -5.03055,0.79878 -2.75308,-0.30702 -4.47877,-0.24308 -4.90352,0.18167 -0.68027,0.68027 0.25803,0.86919 3.86903,0.779 3.98998,-0.0996 4.76414,0.30182 1.90472,0.98779 -1.44628,0.34696 -1.73891,0.54155 -1.57779,1.04919 0.15857,0.49962 -0.11501,0.70201 -1.37923,1.02034 -0.86737,0.21841 -1.90361,0.3971 -2.30276,0.3971 -0.97161,0 -0.92562,0.56849 0.068,0.84079 1.34949,0.36983 -0.004,0.9116 -2.29305,0.9177 -2.08926,0.006 -2.70449,0.4648 -1.14653,0.85582 0.48507,0.12175 0.88194,0.35805 0.88194,0.52512 0,0.45473 -7.63189,0.79734 -9.99695,0.44878 -1.1327,-0.16694 -2.48208,-0.23597 -2.99861,-0.15341 -1.77001,0.2829 -6.09312,2.34838 -7.2042,3.44199 -1.97592,1.94484 -2.73079,3.0031 -2.73079,3.82829 0,0.48986 -0.17301,1.33755 -0.38446,1.88376 -0.52987,1.36873 -1.40727,7.74201 -1.15599,8.39685 0.41863,1.09092 1.0883,0.47611 1.50382,-1.38063 0.23563,-1.05292 0.73714,-2.55337 1.11447,-3.33435 0.37732,-0.78098 0.68605,-1.68559 0.68605,-2.01025 0,-0.86361 1.80131,-4.73546 2.20308,-4.73546 0.39672,0 0.0915,1.44242 -0.6346,2.99861 -0.66804,1.43185 -2.27404,6.42241 -2.27404,7.06646 0,1.06886 1.00335,0.46421 1.56691,-0.94427 0.56984,-1.42415 6.40804,-7.70969 7.161,-7.70969 0.19056,0 0.26474,0.42757 0.16484,0.95016 l -0.18163,0.95015 1.01586,-0.79908 c 0.58427,-0.45959 1.06941,-0.63844 1.1419,-0.42099 0.25398,0.76196 1.31196,0.34207 2.78791,-1.10647 2.65911,-2.60972 1.56,-0.26275 -1.6039,3.42484 -1.76252,2.05426 -2.21849,2.99862 -1.44785,2.99862 0.20596,0 1.6744,-1.32379 3.26319,-2.94174 2.47304,-2.51843 4.93235,-4.4666 5.63852,-4.4666 0.10839,0 0.2484,0.25324 0.31113,0.56275 0.0908,0.44774 0.5557,0.26752 2.27522,-0.88195 2.16691,-1.44854 2.95412,-1.74195 2.95412,-1.10106 0,0.18899 0.79375,-0.12439 1.76389,-0.6964 0.97014,-0.57202 1.76389,-0.93362 1.76389,-0.80356 0,0.42299 -1.85109,2.92022 -2.16464,2.92022 -0.16764,0 -0.3048,0.23813 -0.3048,0.52917 0,0.29104 0.0981,0.52917 0.2179,0.52917 0.35778,0 5.38135,-3.86465 5.67998,-4.36963 0.30334,-0.51296 1.6072,-1.27482 2.18174,-1.27482 0.2007,0 0.27352,0.23813 0.16184,0.52917 -0.26705,0.69591 0.27693,0.66897 2.95853,-0.14653 1.49186,-0.4537 2.27881,-0.54953 2.43515,-0.29657 0.33483,0.54177 -0.74054,1.20799 -2.71412,1.68144 -1.01884,0.24441 -1.80266,0.65195 -1.92033,0.99843 -0.24892,0.733 -3.15984,2.52573 -4.10112,2.52573 -1.00665,0 -2.78291,0.99201 -2.78291,1.55421 0,0.34632 0.50956,0.46659 1.85209,0.43715 1.01864,-0.0223 2.32005,0.087 2.89201,0.24298 2.01843,0.55041 0.1237,0.95643 -4.00913,0.85911 -2.9675,-0.0699 -4.06603,0.0206 -4.17381,0.34396 -0.17398,0.52188 1.3143,1.1487 2.7274,1.1487 1.16367,0 2.12255,0.31212 2.12255,0.6909 0,0.34098 -5.34533,0.85445 -9.14132,0.8781 -1.99736,0.0125 -3.01484,0.15843 -3.11186,0.44646 -0.0816,0.24233 0.28752,0.51814 0.85104,0.63587 2.44436,0.51065 4.85271,1.24146 5.18446,1.57321 0.66855,0.66855 -4.18782,0.41699 -6.2045,-0.3214 -2.12877,-0.77942 -3.7794,-1.004 -4.42892,-0.60257 -0.82616,0.51059 -0.0534,0.93276 1.70727,0.93276 0.96132,0 2.02351,0.15868 2.36043,0.35263 0.33691,0.19394 1.04913,0.50751 1.58271,0.69682 1.08162,0.38375 1.30835,1.06834 0.35278,1.06518 -0.33955,-10e-4 -1.51636,-0.14931 -2.61513,-0.32929 -1.407,-0.23047 -2.86333,-0.18865 -4.92478,0.14142 -2.5372,0.40625 -3.14795,0.39731 -4.58603,-0.0671 -1.49164,-0.48174 -1.82275,-0.48002 -3.28157,0.017 -2.45364,0.83604 -5.94923,3.23969 -6.627587,4.55729 -0.84941,1.64982 -3.14656,8.69534 -3.06061,9.38711 0.0399,0.3207 -0.0528,1.0331 -0.20576,1.5831 -0.36389,1.30801 0.52374,2.37371 1.38307,1.66053 0.30078,-0.24963 0.54687,-0.66872 0.54687,-0.93131 0,-0.2626 0.30456,-0.97826 0.67681,-1.59037 0.37224,-0.6121 0.58899,-1.34178 0.48165,-1.62149 -0.10734,-0.27971 0.14372,-0.96693 0.557907,-1.52715 0.41419,-0.56022 0.75307,-1.26314 0.75307,-1.56204 0,-0.2989 0.13352,-0.54345 0.29672,-0.54345 0.16319,0 0.71651,-0.75406 1.22961,-1.67569 1.11749,-2.00726 2.3355,-3.5906 2.34639,-3.05015 0.008,0.37408 -2.27964,5.19759 -4.1229,8.69496 -0.982577,1.86433 -0.898157,2.7834 0.2286,2.48874 0.39993,-0.10458 0.72714,-0.31904 0.72714,-0.47658 0,-0.37552 1.02558,-1.39517 1.40328,-1.39517 0.16201,0 0.21153,0.3175 0.11005,0.70556 -0.31454,1.20281 0.84762,0.82664 2.46136,-0.7967 2.01603,-2.02803 4.58392,-4.27518 6.78075,-5.9338 0.99963,-0.75473 2.32983,-2.00975 2.95599,-2.78893 1.37142,-1.70653 2.05605,-1.85614 1.23631,-0.27016 -0.53454,1.0342 -3.1373,4.76304 -3.63419,5.20653 -0.11058,0.0987 -0.58234,0.61084 -1.04836,1.13809 l -0.84731,0.95863 0.84731,0.31694 c 0.83988,0.31416 0.83571,0.32382 -0.47508,1.10132 -1.39052,0.82478 -1.45617,1.42176 -0.1561,1.41954 0.91758,-0.002 2.59823,-0.98364 4.80896,-2.81008 2.63975,-2.18088 9.66525,-5.28071 7.84671,-3.46217 -1.3963,1.3963 1.63184,1.3458 4.20049,-0.07 3.48893,-1.92312 3.65378,-1.0519 0.20563,1.08677 -3.58589,2.2241 -4.4708,2.89005 -4.4708,3.36454 0,0.77114 0.70788,0.57865 4.00156,-1.08813 2.7142,-1.37353 6.27028,-2.68937 7.16524,-2.65133 0.16416,0.007 -0.17777,0.40306 -0.75986,0.88019 -0.9613,0.78797 -0.98962,0.86767 -0.30893,0.86926 0.41217,9.6e-4 1.42431,-0.23637 2.24921,-0.52742 1.81214,-0.63936 2.96549,-0.6936 2.61276,-0.12287 -0.13811,0.22346 0.0208,0.6051 0.35307,0.84808 0.68368,0.49992 0.41743,0.77967 -1.32436,1.39146 -2.66571,0.93632 0.11752,1.6136 7.00159,1.7038 2.59808,0.034 4.6319,0.20836 4.69175,0.40213 0.16745,0.54217 -3.12824,1.13018 -5.69663,1.01638 -1.29058,-0.0572 -2.34651,0.0211 -2.34651,0.17398 0,0.15288 0.635,0.63485 1.41111,1.07104 1.47665,0.82993 1.91876,1.64507 0.70556,1.30089 -0.38806,-0.11009 -1.06275,-0.30037 -1.49931,-0.42284 -0.43656,-0.12247 -1.21513,-0.51934 -1.73015,-0.88194 -1.1903,-0.83803 -2.36668,-0.92205 -1.70236,-0.12158 0.74495,0.89761 0.14047,0.9717 -1.6101,0.19734 -1.78433,-0.78929 -2.98308,-0.94621 -2.98308,-0.39049 0,0.58086 2.8763,1.77212 4.27877,1.77212 1.45097,0 2.07144,0.49222 1.09906,0.87188 -0.33843,0.13215 -2.02937,0.38819 -3.75764,0.569 -1.72826,0.1808 -3.33768,0.49089 -3.57648,0.68908 -0.29721,0.24666 -0.71081,0.23431 -1.31099,-0.0392 -0.6776,-0.30873 -1.06729,-0.29162 -1.71518,0.0753 l -0.83838,0.47479 1.05834,0.11205 c 1.81512,0.19216 3.70416,0.78593 3.70416,1.1643 0,0.23238 -1.48626,0.3301 -4.14514,0.27255 -2.27982,-0.0494 -4.70076,0.0744 -5.37986,0.275 l -1.23472,0.36472 0.88194,0.38501 c 0.48507,0.21176 1.43757,0.47683 2.11667,0.58905 1.43483,0.2371 2.37981,0.75366 2.026,1.10747 -0.13564,0.13564 -1.52014,0.0983 -3.07667,-0.083 -1.71265,-0.19946 -3.05756,-0.20229 -3.40624,-0.007 -0.4639,0.25961 -3.85994,0.12365 -5.50752,-0.22049 -0.19487,-0.0407 -0.41969,0.10227 -0.49959,0.31772 -0.088,0.23718 1.31704,0.77933 3.56105,1.37412 3.83455,1.01637 4.63663,1.79652 1.54121,1.49909 -1.18951,-0.1143 -1.89451,-0.0152 -2.22202,0.3123 -0.26866,0.26866 -1.2109,0.47971 -2.14171,0.47971 -1.10979,0 -1.79785,0.18578 -2.07086,0.55915 -0.62489,0.85457 -8.12176,1.11864 -10.95782,0.38598 -2.04806,-0.5291 -3.468387,-0.49964 -4.938877,0.10246 -0.38806,0.15889 -1.45791,0.55628 -2.37746,0.8831 -1.63833,0.58228 -3.0906,1.93162 -3.0906,2.87157 0,0.48783 -1.78003,4.40795 -2.14449,4.72274 -0.3076,0.26568 -2.80649,5.62059 -3.37482,7.23194 -0.27373,0.77611 -1.30887,3.07799 -2.30031,5.11528 -2.00625,4.12262 -2.81917,5.93249 -3.48598,7.76111 -0.24764,0.6791 -0.74206,1.56246 -1.09871,1.96302 -0.35666,0.40056 -0.64846,1.06306 -0.64846,1.47223 0,0.40918 -0.36337,1.19269 -0.80749,1.74116 -0.44411,0.54846 -1.00741,1.39408 -1.25176,1.87915 -0.24436,0.48507 -0.83032,1.51694 -1.30214,2.29305 -0.47182,0.77611 -0.95738,1.60955 -1.07903,1.85209 -0.12165,0.24253 -0.53868,0.44097 -0.92674,0.44097 -0.53049,0 -0.64451,-0.15318 -0.45954,-0.61736 z m 20.9043,-40.04028 c 0.19103,-0.24254 0.45826,-0.91722 0.59384,-1.49931 0.13558,-0.58208 0.66524,-1.69333 1.17702,-2.46944 1.25478,-1.90286 2.47475,-4.02594 2.99003,-5.20347 0.3765,-0.86038 0.9754,-1.32664 0.9754,-0.75936 0,0.11592 -0.9525,2.01823 -2.11667,4.22733 -1.16417,2.20911 -2.11667,4.09864 -2.11667,4.19895 0,0.10031 0.23405,0.18238 0.52011,0.18238 0.28606,0 0.78285,-0.51594 1.10398,-1.14653 0.32113,-0.63059 1.09149,-1.8609 1.7119,-2.73402 0.6204,-0.87313 1.382577,-2.14313 1.693727,-2.82223 0.67869,-1.48131 2.7314,-3.57122 2.7314,-2.7809 0,0.59925 -1.84882,3.63206 -2.43495,3.99431 -0.48201,0.29789 -0.5134,1.60882 -0.0385,1.60882 0.38027,0 1.17874,-0.61465 3.09343,-2.38125 1.35896,-1.25386 2.68963,-1.65055 1.80449,-0.53794 -0.26629,0.33473 -0.95719,1.00942 -1.53533,1.49931 -1.95501,1.6566 -3.38797,3.27192 -3.2555,3.66982 0.40787,1.22515 1.83751,0.22102 5.26553,-3.69835 4.09627,-4.68338 4.27343,-4.92568 3.88528,-5.31384 -0.44811,-0.44811 -4.00166,-0.57982 -6.84403,-0.25367 -4.208177,0.48288 -8.054277,2.271 -8.054277,3.74458 0,0.26247 -0.30103,1.06728 -0.66895,1.78847 -1.27754,2.50417 -2.16833,5.73446 -1.78095,6.45828 0.41617,0.77762 0.81214,0.8471 1.29972,0.22806 z m 15.261287,-0.92604 c 0,-0.62863 -4.77998,-1.29217 -5.1378,-0.71321 -0.10956,0.17726 0.16819,0.46964 0.61722,0.64973 1.04769,0.42019 4.52058,0.46895 4.52058,0.0635 z m 4.23333,-1.4428 c 0,-0.55207 -1.27043,-1.07074 -2.62264,-1.07074 -1.50118,0 -1.62888,0.42276 -0.28777,0.9527 1.24286,0.49111 2.91041,0.55875 2.91041,0.11804 z m -5.36744,-2.72641 c 1.41531,-0.88273 5.01343,-4.44752 5.01409,-4.96765 8.5e-4,-0.66487 -1.88182,-1.31806 -2.07186,-0.71883 -0.0808,0.25464 -0.93475,1.25673 -1.89777,2.22687 -1.72301,1.73574 -3.08535,3.43431 -3.08535,3.84682 0,0.40977 1.09665,0.2017 2.04089,-0.38721 z m 5.12605,-1.20889 c 1.14446,-0.58683 3.06357,-2.49457 2.85268,-2.83579 -0.23245,-0.3761 -1.80759,-0.39028 -1.96453,-0.0177 -0.0647,0.15355 -0.7129,0.72802 -1.44051,1.27659 -1.97104,1.48604 -1.55984,2.65993 0.55236,1.57688 z m 4.71964,-1.16238 c 0.5444,-0.46856 0.8855,-0.95652 0.75801,-1.08434 -0.36439,-0.36535 -2.41403,0.83705 -2.41403,1.41617 0,0.74781 0.52353,0.64291 1.65602,-0.33183 z m 8.57453,-2.6849 c 0,-0.18905 -0.16918,-0.34372 -0.37597,-0.34372 -0.72257,0 -1.74069,0.73474 -1.74069,1.25619 0,0.46113 0.13019,0.45849 1.05833,-0.0215 0.58208,-0.30101 1.05833,-0.70196 1.05833,-0.891 z m -42.765907,-0.0539 c -0.0762,-0.22868 -0.36726,-0.5215 -0.64676,-0.65073 -0.27949,-0.12922 -0.8632,-0.41838 -1.29713,-0.64256 -0.91848,-0.47453 -2.56242,-0.54408 -2.56242,-0.10841 0,0.26377 1.66446,1.09693 3.175,1.58928 0.95038,0.30978 1.47257,0.2362 1.33131,-0.18758 z m 37.748527,-0.13341 c 0.80352,-0.5628 1.04553,-1.21471 0.45094,-1.21471 -0.1832,0 -0.77852,0.39185 -1.32291,0.87079 -1.12702,0.99151 -0.43965,1.26262 0.87197,0.34392 z m -2.13762,-0.73329 c 0.0767,-0.23409 -0.42506,-0.47146 -1.20756,-0.57125 -1.49926,-0.19119 -2.35255,0.26798 -1.51227,0.81378 0.68115,0.44243 2.54994,0.27579 2.71983,-0.24253 z m -3.68195,-0.99736 c 0.11983,-0.52686 -2.55022,-1.05467 -3.0099,-0.59499 -0.27663,0.27663 -0.14542,0.48135 0.46969,0.73283 1.01635,0.41552 2.43182,0.33872 2.54021,-0.13784 z m 8.36751,-0.90391 c 0,-0.38401 -1.46867,-1.0496 -2.31602,-1.0496 -0.8528,0 -0.56262,0.62616 0.46393,1.00109 1.29184,0.47182 1.85209,0.48649 1.85209,0.0485 z m 4.58611,-0.27317 c 0,-0.372 -2.46095,-1.2553 -2.73469,-0.98156 -0.33592,0.33592 1.06517,1.23987 1.94094,1.25225 0.43656,0.006 0.79375,-0.11564 0.79375,-0.27069 z M 27.489328,148.5176 c 0,-0.29104 -0.27782,-0.53133 -0.61737,-0.53398 -0.33954,-0.003 -0.97454,-0.10054 -1.41111,-0.21754 -0.57277,-0.15349 -0.79375,-0.0608 -0.79375,0.33306 0,0.50535 0.67436,0.78049 2.20486,0.89959 0.33955,0.0264 0.61737,-0.19009 0.61737,-0.48113 z m 29.050637,-1.7991 c 0.35862,-0.49224 0.55643,-0.99059 0.43958,-1.10743 -0.23967,-0.23967 -1.97355,1.28314 -1.97355,1.7333 0,0.60476 0.90702,0.23469 1.53397,-0.62587 z m 8.96718,-0.0269 c 0.5223,-0.5223 0.76986,-1.00216 0.55412,-1.07407 -0.50438,-0.16813 -2.67488,1.04225 -2.85888,1.59426 -0.26531,0.79592 1.35417,0.4304 2.30476,-0.52019 z m 3.76623,-0.092 c 0.34012,-0.37582 0.51255,-0.8546 0.38317,-1.06393 -0.29874,-0.48338 -2.30333,0.64292 -2.30333,1.29416 0,0.68789 1.22185,0.5414 1.92016,-0.23023 z m 10.04856,-0.90364 c 0.28209,-0.2821 0.40896,-0.61683 0.28192,-0.74387 -0.27809,-0.2781 -2.59427,0.77454 -2.9419,1.33702 -0.35973,0.58206 2.01411,0.0527 2.65998,-0.59315 z m -55.713167,0.21905 c 0,-0.5624 -0.9759,-1.13251 -2.30892,-1.34883 -1.69155,-0.2745 -1.54965,0.49958 0.2079,1.13411 1.52761,0.55152 2.10102,0.61012 2.10102,0.21472 z m -3.49249,-3.35206 c -0.53369,-0.64306 -2.4255,-1.00387 -3.14686,-0.60017 -0.46334,0.2593 -0.33879,0.38763 0.65205,0.67185 0.67364,0.19324 1.60143,0.36565 2.06175,0.38315 0.67285,0.0256 0.75776,-0.0636 0.43306,-0.45483 z m 3.49249,-0.55087 c 0,-0.69212 -0.59648,-1.30581 -0.93763,-0.96467 -0.27702,0.27702 0.22938,1.64941 0.60863,1.64941 0.18095,0 0.329,-0.30813 0.329,-0.68474 z m -3.175,-2.0984 c 0,-0.17253 -0.31222,-0.68847 -0.69382,-1.14653 -0.66505,-0.7983 -0.6943,-0.80285 -0.70555,-0.10964 -0.0118,0.72548 0.58911,1.56986 1.11715,1.56986 0.15522,0 0.28222,-0.14116 0.28222,-0.31369 z m 23.22525,-3.77212 c 0.59872,-3.55017 0.68453,-5.61118 0.23447,-5.63152 -0.41603,-0.0188 -1.96104,7.48886 -1.68772,8.20112 0.42213,1.10005 1.00955,0.0614 1.45325,-2.5696 z m -11.07774,-2.72691 c -0.18949,-0.49382 -2.10586,-1.30116 -3.08853,-1.30116 -1.02305,0 -0.64645,0.60764 0.7306,1.17881 1.65617,0.68694 2.59325,0.73557 2.35793,0.12235 z m 3.54507,-1.70593 c -0.23877,-2.0572 -1.9127,-6.18627 -2.18128,-5.38052 -0.18475,0.55425 1.26393,6.54501 1.71379,7.08705 0.65612,0.79059 0.7272,0.53114 0.46749,-1.70653 z m -7.22591,-1.37712 c 0,-0.20393 -0.55053,-0.60081 -1.22339,-0.88195 -1.41478,-0.59113 -1.95161,-0.64278 -1.95161,-0.18778 0,0.25129 1.31531,0.85323 3.0868,1.41265 0.0485,0.0153 0.0882,-0.139 0.0882,-0.34292 z m 39.810977,-4.89304 c 1.94506,-2.23627 2.08448,-2.4973 1.33391,-2.4973 -0.65342,0 -4.50978,3.86091 -4.26002,4.26503 0.42802,0.69256 1.18284,0.23655 2.92611,-1.76773 z m -44.012237,0.73764 c -0.49757,-0.92973 -4.97097,-2.3215 -4.97097,-1.54658 0,0.3652 3.87746,2.1713 4.68672,2.18305 0.50167,0.007 0.55949,-0.12218 0.28425,-0.63647 z m 4.08835,-0.71265 c -0.48505,-2.42527 -2.75404,-6.25845 -2.69375,-4.55076 0.0257,0.72668 0.87859,3.54698 1.38696,4.58611 0.65199,1.33269 1.57541,1.30771 1.30679,-0.0353 z m 19.804357,-6.44557 c 0.0996,-3.45351 0.009,-5.58302 -0.27564,-6.44418 -0.975877,-2.95694 -6.061137,-6.56587 -9.251817,-6.56587 -2.0626,0 -2.27493,0.35293 -1.49508,2.48515 2.36783,6.47401 4.13363,11.64049 4.33392,12.6805 0.14872,0.77217 0.46834,1.27546 0.85763,1.35043 0.54295,0.10456 0.59103,-0.0714 0.38444,-1.40731 -0.12987,-0.83976 -0.4551,-2.32058 -0.72274,-3.29071 -0.63632,-2.30659 -1.4998,-6.82217 -1.51541,-7.92491 -0.0312,-2.20688 1.8434,1.59956 2.51303,5.10268 0.18545,0.97014 0.5034,2.39889 0.70657,3.175 0.20317,0.77611 0.47192,2.35115 0.59722,3.50007 0.12861,1.17928 0.41985,2.15224 0.66879,2.23426 0.64154,0.21139 0.55727,-1.85292 -0.26823,-6.57074 -0.80633,-4.60816 -0.80827,-4.63164 -0.38398,-4.63164 0.73218,0 1.7225,2.47352 1.92112,4.79837 0.69197,8.09938 0.76154,8.47037 1.38237,7.37246 0.223897,-0.39596 0.464277,-2.96884 0.547807,-5.86356 z m -8.402557,1.85419 c 0,-1.09294 -2.45674,-3.89023 -3.43959,-3.91639 -0.66,-0.0176 -0.57949,0.15101 1.17176,2.45377 1.67441,2.20169 2.26783,2.58442 2.26783,1.46262 z m 28.659277,-6.80718 c -0.22528,-0.22528 -0.85234,-0.45409 -1.39347,-0.50845 -0.54113,-0.0544 -1.66846,-0.19876 -2.50519,-0.32087 -1.46511,-0.21382 -2.53562,0.17854 -2.53562,0.92934 0,0.17027 1.53988,0.30959 3.42194,0.30959 2.59781,0 3.3233,-0.0986 3.01234,-0.40961 z m 0.62128,-2.02159 c 0,-0.34945 -1.74873,-0.87656 -2.01724,-0.60805 -0.0935,0.0935 -0.0654,0.33939 0.0624,0.54633 0.28056,0.45395 1.95479,0.50681 1.95479,0.0617 z m 5.91215,-1.53755 c -0.24107,-0.7389 -3.27872,-1.16263 -4.40896,-0.61502 l -0.97403,0.47192 1.05834,0.2503 c 1.8865,0.44615 4.48417,0.38176 4.32465,-0.1072 z m -7.14492,-1.32508 c 0.35226,-0.38925 0.56837,-0.77983 0.48024,-0.86796 -0.36385,-0.36385 -1.66443,0.27854 -1.82767,0.90274 -0.23261,0.88952 0.52873,0.86987 1.34743,-0.0348 z m 9.5885,-5.351 c 0.89354,-0.83944 1.04599,-1.34962 0.40329,-1.34962 -0.5857,0 -1.70347,1.07755 -1.70347,1.64218 0,0.67176 0.35992,0.59077 1.30018,-0.29256 z m 7.16649,-0.64406 c 0,-0.19403 -0.47625,-0.35278 -1.05834,-0.35278 -0.58208,0 -1.05833,0.15875 -1.05833,0.35278 0,0.19402 0.47625,0.35277 1.05833,0.35277 0.58209,0 1.05834,-0.15875 1.05834,-0.35277 z M 21.844878,96.146732 c 0,-0.39701 -2.44506,-1.13162 -2.87731,-0.86448 -0.54618,0.33756 -0.30665,0.7971 0.49606,0.95171 1.47417,0.28394 2.38125,0.25071 2.38125,-0.0872 z m 44.852937,-5.32319 c 2.82435,-0.841134 3.23594,-1.544414 0.74359,-1.270584 -2.48902,0.27346 -3.77852,0.7353 -3.90642,1.399094 -0.14656,0.76066 0.22833,0.74542 3.16283,-0.12851 z m -5.11634,-0.955204 c 0.88432,-1.20672 1.67071,-4.06904 1.06461,-3.87499 -0.22448,0.0719 -0.841,0.91361 -1.37005,1.87054 -1.44465,2.613084 -1.22017,4.086274 0.30544,2.00445 z m -11.82507,-0.88202 c 0.13472,-4.8006 -0.18071,-8.88113 -0.75698,-9.79262 -0.18295,-0.28937 -0.34962,-0.36738 -0.37039,-0.17335 -0.11223,1.04853 0.11313,10.96653 0.25438,11.19507 0.43135,0.697944 0.83485,0.129854 0.87299,-1.2291 z m 15.73852,-2.29574 c 0.60916,-1.37619 0.94537,-3.26231 0.57947,-3.25082 -0.38156,0.012 -1.89618,2.95986 -1.89618,3.69052 0,0.88522 0.85691,0.59906 1.31671,-0.4397 z m 7.0388,-2.22699 c 0.8524,-0.32409 0.9096,-0.42431 0.40368,-0.70744 -0.67134,-0.37571 -2.40919,0.1462 -2.40919,0.72352 0,0.4658 0.75398,0.45976 2.00551,-0.0161 z m 2.5806,-2.9738 c 0.37386,-0.45047 0.28097,-0.52917 -0.62462,-0.52917 -0.62015,0 -1.14846,0.22068 -1.26684,0.52917 -0.14494,0.37771 0.0338,0.52917 0.62461,0.52917 0.45523,0 1.02531,-0.23813 1.26685,-0.52917 z m -43.391667,-0.87289 c 0,-0.49338 -2.05432,-1.48669 -2.75771,-1.3334 -0.44319,0.0966 -0.28069,0.32521 0.64104,0.90193 1.3206,0.82629 2.11667,0.98856 2.11667,0.43147 z m 46.870677,-1.99016 c 0.58469,-0.40953 0.7061,-0.67768 0.43127,-0.9525 -0.27482,-0.27482 -0.50168,-0.26333 -0.80584,0.0408 -0.23283,0.23283 -0.70908,0.42333 -1.05833,0.42333 -0.34925,0 -0.635,0.23813 -0.635,0.52917 0,0.69525 1.0465,0.67459 2.0679,-0.0408 z m -3.54853,-1.13973 c 0.38969,-0.74761 0.58695,-1.55164 0.43931,-1.79053 -0.17507,-0.28327 -0.59257,0.18717 -1.20422,1.35694 -0.69653,1.33208 -0.80901,1.79054 -0.43931,1.79054 0.27332,0 0.81522,-0.61063 1.20422,-1.35695 z m -46.935927,-0.49514 c -0.17278,-0.52619 -2.03067,-0.8166 -2.03067,-0.31741 0,0.40174 0.60478,0.69075 1.52871,0.73053 0.3673,0.0158 0.58419,-0.16268 0.50196,-0.41312 z m 27.540167,-0.92969 c 0.0627,-0.65367 -0.0538,-1.35616 -0.2587,-1.56109 -0.50827,-0.50828 -0.6261,-0.31044 -0.86771,1.45698 -0.17987,1.31575 -0.12496,1.50805 0.40211,1.40822 0.40507,-0.0767 0.64873,-0.51541 0.7243,-1.30411 z m 6.05972,-1.27517 c 0.36692,-0.4421 0.31598,-0.52916 -0.30958,-0.52916 -0.43037,0 -0.74875,0.225 -0.74875,0.52916 0,0.29104 0.13931,0.52917 0.30958,0.52917 0.17027,0 0.50721,-0.23813 0.74875,-0.52917 z m -34.233507,-2.13361 c -0.23381,-0.28172 -0.56442,-0.51222 -0.73469,-0.51222 -0.51006,0 -0.35103,0.78046 0.30778,1.51048 0.54895,0.60828 0.63037,0.61926 0.73469,0.099 0.0645,-0.32179 -0.074,-0.81557 -0.30778,-1.09729 z m 32.411427,-0.34294 c 0.1038,-0.88787 0.0501,-0.9545 -0.44097,-0.54696 -0.66425,0.55128 -0.75878,1.91313 -0.1182,1.70279 0.24254,-0.0796 0.49417,-0.59976 0.55917,-1.15583 z m 21.43934,0.27169 c 0.64767,-0.8532 0.60332,-1.14653 -0.17335,-1.14653 -0.42858,0 -0.72428,0.31306 -0.83303,0.88195 -0.19531,1.0217 0.32733,1.15911 1.00638,0.26458 z m -32.92647,-2.81542 c -0.0945,-0.24627 -0.313587,-0.44777 -0.486857,-0.44777 -0.38045,0 -0.42519,2.94681 -0.0504,3.32306 0.312707,0.31399 0.787067,-2.22443 0.537307,-2.87529 z m -1.860227,-0.21616 c 0,-0.84275 -0.28185,-2.39056 -0.62632,-3.43958 -0.7018,-2.13714 -0.64819,-3.84759 0.12059,-3.84759 0.70185,0 0.64875,-0.19417 -0.51616,-1.88731 -1.96191,-2.85153 -9.2743,-8.36394 -11.78454,-8.88371 -0.34957,-0.0724 -1.12802,-0.37726 -1.72989,-0.67751 -1.48969,-0.74316 -2.19441,-0.71592 -1.8485,0.0715 0.14917,0.33955 0.33187,1.25236 0.406,2.02847 0.2109,2.20814 0.43801,2.99861 0.86154,2.99861 0.2639,0 0.31795,-0.55451 0.16583,-1.70125 -0.12413,-0.93569 -0.11777,-1.80916 0.0141,-1.94105 0.4481,-0.4481 1.53177,0.92483 1.53177,1.94065 0,1.17176 1.6269,3.81832 2.34721,3.81832 0.26925,0 0.99309,0.71437 1.60853,1.5875 1.17376,1.66523 1.73761,2.00789 1.59635,0.97014 -0.24804,-1.82226 2.00631,0.32401 2.96434,2.82222 0.20462,0.53358 0.50589,0.97014 0.66949,0.97014 0.60261,0 0.69222,-0.69407 0.28581,-2.21362 -0.44085,-1.64826 -0.19115,-3.11081 0.42577,-2.49388 0.19215,0.19215 0.42793,0.96296 0.52395,1.71292 0.096,0.74995 0.47519,2.33682 0.8426,3.52638 0.36742,1.18955 0.78167,2.94559 0.92055,3.90232 0.28227,1.9444 0.40933,2.26866 0.889,2.26866 0.18258,0 0.33196,-0.68953 0.33196,-1.53228 z m -2.46945,-0.89667 c 0,-0.36578 -0.23191,-1.19921 -0.51536,-1.85208 l -0.51536,-1.18703 -0.009,1.05833 c -0.0117,1.38242 0.33592,2.64584 0.72808,2.64584 0.1714,0 0.31163,-0.29928 0.31163,-0.66506 z m -6.02074,-1.5783 c -0.42315,-0.38321 -1.74037,-0.5856 -1.74037,-0.26739 0,0.55427 1.1828,1.10693 1.56398,0.73077 0.18109,-0.17871 0.26047,-0.38723 0.17639,-0.46338 z m 3.6786,-0.13789 c -0.28713,-1.16592 -1.14632,-2.55764 -1.57899,-2.55764 -0.58363,0 -0.31516,1.66497 0.41896,2.59826 0.94906,1.20654 1.46274,1.18855 1.16003,-0.0406 z m -4.00786,-3.24238 c 0,-0.64574 -0.58883,-1.31347 -0.89142,-1.01088 -0.24231,0.24231 0.25462,1.69562 0.57979,1.69562 0.1714,0 0.31163,-0.30813 0.31163,-0.68474 z m -9.525,-8.81944 c 0,-0.41623 -0.68804,-0.86149 -0.94074,-0.60879 -0.2527,0.2527 0.19255,0.94074 0.60878,0.94074 0.18258,0 0.33196,-0.14938 0.33196,-0.33195 z m 33.392157,-0.21243 c 0.11489,-0.29941 0.13263,-0.62064 0.0394,-0.71386 -0.31429,-0.31428 -1.3288,0.27116 -1.3288,0.76682 0,0.66758 1.0291,0.62531 1.28938,-0.053 z m 2.51438,-3.98722 c 0.1011,-0.30361 -0.0685,-0.43074 -0.4707,-0.35278 -0.34582,0.067 -0.69988,0.33548 -0.78681,0.59655 -0.1011,0.30361 0.0685,0.43074 0.4707,0.35278 0.34581,-0.067 0.69988,-0.33549 0.78681,-0.59655 z m -27.441187,-1.20103 c -0.002,-0.78856 -1.38484,-2.73403 -1.94283,-2.73403 -0.48139,0 -0.47695,0.13087 0.0389,1.14653 0.72637,1.43015 1.19702,2.02847 1.59566,2.02847 0.17027,0 0.30899,-0.19844 0.30826,-0.44097 z m 6.7041,-7.67292 c 0,-0.19403 -0.16812,-0.35278 -0.3736,-0.35278 -0.20548,0 -0.27549,0.15875 -0.15557,0.35278 0.11992,0.19403 0.28803,0.35278 0.3736,0.35278 0.0856,0 0.15557,-0.15875 0.15557,-0.35278 z m 15.599107,-3.66352 c 0.1393,-0.21638 0.10842,-0.44341 -0.0686,-0.5045 -0.46416,-0.16015 -1.77214,0.59948 -1.77214,1.0292 0,0.45093 1.48524,0.0276 1.84078,-0.5247 z m 22.88152,59.549404 c 0.0169,-0.41096 0.10052,-0.49456 0.21314,-0.21313 0.1019,0.25466 0.0894,0.55893 -0.0279,0.67615 -0.11722,0.11723 -0.2006,-0.0911 -0.18528,-0.46302 z"
       id="path2" /></g></svg>
